# xmcd CD database file
#
# Track frame offsets:
#	150
#	16250
#	32968
#	54137
#	69840
#	87937
#	105918
#	128344
#	145912
#	162761
#	178084
#	204220
#
# Disc length: 2996 seconds
#
# Revision: 0
# Processed by: cddbd v1.5.2PL0 Copyright (c) Steve Scherf et al.
# Submitted via: CDex 1.70beta2
#
DISCID=890bb20c
DTITLE=Circe Link - One Drop of Poison
DYEAR=2005
DGENRE=Country
TTITLE0=One Drop of Poison
TTITLE1=Sorrow for Three
TTITLE2=Can't Make the Rain Come Down
TTITLE3=Life is a Bitch
TTITLE4=Love's Train
TTITLE5=Cheshire Moon
TTITLE6=Downtown
TTITLE7=Went and Fell in Love
TTITLE8=Sleeping Dogs
TTITLE9=Lovely Moon
TTITLE10=Blue Skies
TTITLE11=Black the Sky
EXTD=YEAR: 2005
EXTT0=
EXTT1=
EXTT2=
EXTT3=
EXTT4=
EXTT5=
EXTT6=
EXTT7=
EXTT8=
EXTT9=
EXTT10=
EXTT11=
PLAYORDER=
